<?xml version="1.0" encoding="UTF-8" standalone="no"?>
<!DOCTYPE svg PUBLIC "-//W3C//DTD SVG 1.1//EN" "http://www.w3.org/Graphics/SVG/1.1/DTD/svg11.dtd">
<svg width="100%" height="100%" viewBox="0 0 1223 175" version="1.1" xmlns="http://www.w3.org/2000/svg" xmlns:xlink="http://www.w3.org/1999/xlink" xml:space="preserve" xmlns:serif="http://www.serif.com/" style="fill-rule:evenodd;clip-rule:evenodd;stroke-linejoin:round;stroke-miterlimit:2;">
    <g transform="matrix(1,0,0,1,-595.854,-295.879)">
        <g transform="matrix(200,0,0,200,599.599,435.879)">
            <path d="M-0.016,0.104L-0.004,0.058C-0.001,0.049 0.005,0.041 0.014,0.034C0.023,0.027 0.032,0.023 0.041,0.023L0.596,0.023C0.605,0.023 0.613,0.02 0.62,0.014C0.627,0.008 0.632,0.001 0.634,-0.008C0.636,-0.016 0.635,-0.023 0.631,-0.029C0.627,-0.035 0.621,-0.038 0.612,-0.038L0.093,-0.038C0.074,-0.038 0.059,-0.045 0.049,-0.059C0.038,-0.073 0.036,-0.09 0.041,-0.109L0.058,-0.172C0.071,-0.221 0.093,-0.267 0.123,-0.31C0.153,-0.353 0.188,-0.39 0.229,-0.422C0.27,-0.454 0.314,-0.479 0.362,-0.498C0.409,-0.516 0.457,-0.525 0.506,-0.525L1.171,-0.525C1.19,-0.525 1.205,-0.518 1.216,-0.504C1.226,-0.49 1.228,-0.473 1.223,-0.454L1.073,0.104C1.07,0.114 1.066,0.123 1.06,0.132C1.054,0.14 1.047,0.147 1.039,0.154C1.031,0.161 1.022,0.166 1.012,0.17C1.003,0.173 0.993,0.175 0.983,0.175L0.036,0.175C0.017,0.175 0.002,0.168 -0.009,0.154C-0.019,0.14 -0.021,0.123 -0.016,0.104ZM0.552,-0.137L0.634,-0.137C0.644,-0.137 0.653,-0.14 0.662,-0.148C0.67,-0.155 0.675,-0.163 0.678,-0.172L0.723,-0.338C0.726,-0.347 0.724,-0.356 0.72,-0.363C0.715,-0.37 0.707,-0.373 0.697,-0.373L0.615,-0.373C0.606,-0.373 0.597,-0.37 0.588,-0.363C0.579,-0.356 0.574,-0.347 0.571,-0.338L0.526,-0.172C0.523,-0.163 0.525,-0.155 0.53,-0.148C0.535,-0.14 0.543,-0.137 0.552,-0.137Z" style="fill-rule:nonzero;"/>
        </g>
        <g transform="matrix(200,0,0,200,819.999,435.879)">
            <path d="M0.05,-0.071L0.2,-0.629C0.203,-0.639 0.207,-0.648 0.213,-0.657C0.219,-0.665 0.226,-0.672 0.234,-0.679C0.242,-0.686 0.251,-0.691 0.261,-0.695C0.27,-0.698 0.28,-0.7 0.29,-0.7L0.617,-0.7C0.636,-0.7 0.651,-0.693 0.661,-0.679C0.671,-0.665 0.673,-0.648 0.668,-0.629L0.518,-0.071C0.515,-0.061 0.511,-0.052 0.505,-0.044C0.499,-0.035 0.492,-0.028 0.484,-0.021C0.476,-0.014 0.467,-0.009 0.458,-0.006C0.449,-0.002 0.439,-0 0.429,-0L0.102,-0C0.083,-0 0.068,-0.007 0.058,-0.021C0.047,-0.035 0.045,-0.052 0.05,-0.071Z" style="fill-rule:nonzero;"/>
        </g>
        <g transform="matrix(200,0,0,200,919.999,435.879)">
            <path d="M0.05,-0.071L0.162,-0.49C0.165,-0.499 0.171,-0.507 0.18,-0.515C0.189,-0.522 0.198,-0.525 0.207,-0.525L0.605,-0.525C0.614,-0.525 0.622,-0.522 0.627,-0.515C0.632,-0.507 0.633,-0.499 0.63,-0.49L0.518,-0.071C0.515,-0.061 0.511,-0.052 0.505,-0.044C0.499,-0.035 0.492,-0.028 0.484,-0.021C0.476,-0.014 0.467,-0.009 0.458,-0.006C0.449,-0.002 0.439,-0 0.429,-0L0.102,-0C0.083,-0 0.068,-0.007 0.058,-0.021C0.047,-0.035 0.045,-0.052 0.05,-0.071ZM0.197,-0.621L0.2,-0.629C0.203,-0.639 0.207,-0.648 0.213,-0.657C0.219,-0.665 0.226,-0.672 0.234,-0.679C0.242,-0.686 0.251,-0.691 0.261,-0.695C0.27,-0.698 0.28,-0.7 0.29,-0.7L0.617,-0.7C0.636,-0.7 0.651,-0.693 0.661,-0.679C0.671,-0.665 0.673,-0.648 0.668,-0.629L0.665,-0.621C0.662,-0.612 0.656,-0.604 0.648,-0.597C0.639,-0.59 0.63,-0.586 0.621,-0.586L0.223,-0.586C0.214,-0.586 0.206,-0.59 0.201,-0.597C0.195,-0.604 0.194,-0.612 0.197,-0.621Z" style="fill-rule:nonzero;"/>
        </g>
        <g transform="matrix(200,0,0,200,1022,435.879)">
            <path d="M0.11,-0.353L0.184,-0.629C0.187,-0.639 0.191,-0.648 0.197,-0.657C0.203,-0.665 0.21,-0.672 0.218,-0.679C0.226,-0.686 0.235,-0.691 0.245,-0.695C0.254,-0.698 0.264,-0.7 0.274,-0.7L0.601,-0.7C0.62,-0.7 0.635,-0.693 0.645,-0.679C0.655,-0.665 0.657,-0.648 0.652,-0.629L0.633,-0.56C0.63,-0.551 0.632,-0.543 0.637,-0.536C0.642,-0.529 0.65,-0.525 0.659,-0.525L0.94,-0.525C0.959,-0.525 0.974,-0.518 0.984,-0.504C0.994,-0.49 0.996,-0.473 0.991,-0.454L0.978,-0.408C0.975,-0.399 0.97,-0.391 0.962,-0.384C0.953,-0.377 0.944,-0.373 0.934,-0.373L0.618,-0.373C0.609,-0.373 0.6,-0.37 0.591,-0.363C0.582,-0.356 0.577,-0.347 0.574,-0.338L0.533,-0.188C0.53,-0.178 0.532,-0.17 0.537,-0.163C0.542,-0.156 0.55,-0.152 0.559,-0.152L0.641,-0.152C0.651,-0.152 0.66,-0.156 0.668,-0.163C0.676,-0.17 0.682,-0.178 0.685,-0.188L0.688,-0.197C0.691,-0.206 0.697,-0.215 0.706,-0.222C0.714,-0.229 0.723,-0.232 0.733,-0.232L1.13,-0.232C1.14,-0.232 1.148,-0.229 1.153,-0.222C1.158,-0.215 1.16,-0.206 1.157,-0.197L1.123,-0.071C1.12,-0.061 1.116,-0.052 1.11,-0.044C1.104,-0.035 1.097,-0.028 1.089,-0.021C1.081,-0.014 1.072,-0.009 1.063,-0.006C1.053,-0.002 1.043,-0 1.033,-0L0.368,-0C0.319,-0 0.276,-0.009 0.238,-0.028C0.2,-0.046 0.169,-0.071 0.146,-0.103C0.123,-0.135 0.108,-0.172 0.101,-0.216C0.094,-0.259 0.097,-0.304 0.11,-0.353Z" style="fill-rule:nonzero;"/>
        </g>
        <g transform="matrix(200,0,0,200,1200.4,435.879)">
            <path d="M0.11,-0.353L0.184,-0.629C0.187,-0.639 0.191,-0.648 0.197,-0.657C0.203,-0.665 0.21,-0.672 0.218,-0.679C0.226,-0.686 0.235,-0.691 0.245,-0.695C0.254,-0.698 0.264,-0.7 0.274,-0.7L0.601,-0.7C0.62,-0.7 0.635,-0.693 0.645,-0.679C0.655,-0.665 0.657,-0.648 0.652,-0.629L0.633,-0.56C0.63,-0.551 0.632,-0.543 0.637,-0.536C0.642,-0.529 0.65,-0.525 0.659,-0.525L0.94,-0.525C0.959,-0.525 0.974,-0.518 0.984,-0.504C0.994,-0.49 0.996,-0.473 0.991,-0.454L0.978,-0.408C0.975,-0.399 0.97,-0.391 0.962,-0.384C0.953,-0.377 0.944,-0.373 0.934,-0.373L0.618,-0.373C0.609,-0.373 0.6,-0.37 0.591,-0.363C0.582,-0.356 0.577,-0.347 0.574,-0.338L0.533,-0.188C0.53,-0.178 0.532,-0.17 0.537,-0.163C0.542,-0.156 0.55,-0.152 0.559,-0.152L0.641,-0.152C0.651,-0.152 0.66,-0.156 0.668,-0.163C0.676,-0.17 0.682,-0.178 0.685,-0.188L0.688,-0.197C0.691,-0.206 0.697,-0.215 0.706,-0.222C0.714,-0.229 0.723,-0.232 0.733,-0.232L1.13,-0.232C1.14,-0.232 1.148,-0.229 1.153,-0.222C1.158,-0.215 1.16,-0.206 1.157,-0.197L1.123,-0.071C1.12,-0.061 1.116,-0.052 1.11,-0.044C1.104,-0.035 1.097,-0.028 1.089,-0.021C1.081,-0.014 1.072,-0.009 1.063,-0.006C1.053,-0.002 1.043,-0 1.033,-0L0.368,-0C0.319,-0 0.276,-0.009 0.238,-0.028C0.2,-0.046 0.169,-0.071 0.146,-0.103C0.123,-0.135 0.108,-0.172 0.101,-0.216C0.094,-0.259 0.097,-0.304 0.11,-0.353Z" style="fill-rule:nonzero;"/>
        </g>
        <g transform="matrix(200,0,0,200,1382.8,435.879)">
            <path d="M0.033,-0.071L0.06,-0.172C0.073,-0.221 0.095,-0.267 0.125,-0.31C0.155,-0.353 0.19,-0.39 0.231,-0.422C0.271,-0.454 0.315,-0.479 0.363,-0.498C0.411,-0.516 0.459,-0.525 0.508,-0.525L1.173,-0.525C1.192,-0.525 1.207,-0.518 1.218,-0.504C1.228,-0.49 1.23,-0.473 1.225,-0.454L1.169,-0.248C1.166,-0.239 1.161,-0.231 1.152,-0.224C1.143,-0.217 1.134,-0.213 1.124,-0.213L0.57,-0.213C0.561,-0.213 0.553,-0.21 0.546,-0.204C0.539,-0.198 0.534,-0.191 0.531,-0.183C0.528,-0.174 0.529,-0.167 0.534,-0.161C0.539,-0.155 0.545,-0.152 0.554,-0.152L1.108,-0.152C1.118,-0.152 1.126,-0.149 1.131,-0.142C1.136,-0.135 1.137,-0.126 1.134,-0.117L1.122,-0.071C1.119,-0.061 1.115,-0.052 1.109,-0.044C1.103,-0.035 1.096,-0.028 1.088,-0.021C1.08,-0.014 1.071,-0.009 1.062,-0.006C1.052,-0.002 1.042,-0 1.032,-0L0.085,-0C0.066,-0 0.051,-0.007 0.041,-0.021C0.03,-0.035 0.028,-0.052 0.033,-0.071ZM0.597,-0.312L0.688,-0.312C0.697,-0.312 0.705,-0.315 0.712,-0.321C0.719,-0.327 0.724,-0.334 0.726,-0.342C0.728,-0.351 0.727,-0.358 0.723,-0.364C0.719,-0.37 0.713,-0.373 0.704,-0.373L0.613,-0.373C0.604,-0.373 0.596,-0.37 0.589,-0.364C0.582,-0.358 0.577,-0.351 0.574,-0.342C0.571,-0.334 0.572,-0.327 0.577,-0.321C0.582,-0.315 0.588,-0.312 0.597,-0.312Z" style="fill-rule:nonzero;"/>
        </g>
        <g transform="matrix(200,0,0,200,1572.8,435.879)">
            <path d="M0.033,-0.071L0.06,-0.172C0.073,-0.221 0.095,-0.267 0.125,-0.31C0.155,-0.353 0.19,-0.39 0.231,-0.422C0.271,-0.454 0.315,-0.479 0.363,-0.498C0.411,-0.516 0.459,-0.525 0.508,-0.525L1.173,-0.525C1.192,-0.525 1.207,-0.518 1.218,-0.504C1.228,-0.49 1.23,-0.473 1.225,-0.454L1.191,-0.328C1.188,-0.319 1.183,-0.311 1.174,-0.304C1.165,-0.297 1.156,-0.293 1.146,-0.293L0.749,-0.293C0.739,-0.293 0.731,-0.297 0.726,-0.304C0.72,-0.311 0.719,-0.319 0.722,-0.328L0.725,-0.338C0.728,-0.347 0.727,-0.356 0.722,-0.363C0.717,-0.37 0.709,-0.373 0.699,-0.373L0.617,-0.373C0.608,-0.373 0.599,-0.37 0.59,-0.363C0.581,-0.356 0.576,-0.347 0.573,-0.338L0.501,-0.071C0.498,-0.061 0.494,-0.052 0.488,-0.044C0.482,-0.035 0.475,-0.028 0.467,-0.021C0.459,-0.014 0.45,-0.009 0.441,-0.006C0.432,-0.002 0.422,-0 0.412,-0L0.085,-0C0.066,-0 0.051,-0.007 0.041,-0.021C0.03,-0.035 0.028,-0.052 0.033,-0.071Z" style="fill-rule:nonzero;"/>
        </g>
    </g>
</svg>
