<?xml version="1.0" encoding="UTF-8" standalone="no"?>
<!DOCTYPE svg PUBLIC "-//W3C//DTD SVG 1.1//EN" "http://www.w3.org/Graphics/SVG/1.1/DTD/svg11.dtd">
<svg width="100%" height="100%" viewBox="0 0 1223 175" version="1.1" xmlns="http://www.w3.org/2000/svg" xmlns:xlink="http://www.w3.org/1999/xlink" xml:space="preserve" xmlns:serif="http://www.serif.com/" style="fill-rule:evenodd;clip-rule:evenodd;stroke-linejoin:round;stroke-miterlimit:2;">
    <g transform="matrix(1,0,0,1,-595.854,-295.879)">
        <path d="M596.399,456.679L598.799,447.479C599.466,445.613 600.666,443.979 602.399,442.579C604.132,441.179 605.932,440.479 607.799,440.479L718.799,440.479C720.532,440.479 722.132,439.879 723.599,438.679C725.066,437.479 725.999,436.013 726.399,434.279C726.799,432.679 726.599,431.279 725.799,430.079C724.999,428.879 723.732,428.279 721.999,428.279L618.199,428.279C614.332,428.279 611.366,426.879 609.299,424.079C607.232,421.279 606.732,417.946 607.799,414.079L611.199,401.479C613.866,391.746 618.199,382.579 624.199,373.979C630.199,365.379 637.266,357.879 645.399,351.479C653.532,345.079 662.366,340.046 671.899,336.379C681.432,332.713 691.066,330.879 700.799,330.879L833.799,330.879C837.666,330.879 840.632,332.279 842.699,335.079C844.766,337.879 845.266,341.213 844.199,345.079L814.199,456.679C813.666,458.679 812.799,460.513 811.599,462.179C810.399,463.846 808.999,465.346 807.399,466.679C805.799,468.013 804.032,469.046 802.099,469.779C800.166,470.513 798.199,470.879 796.199,470.879L606.799,470.879C602.932,470.879 599.966,469.479 597.899,466.679C595.832,463.879 595.332,460.546 596.399,456.679ZM709.999,408.479L726.399,408.479C728.399,408.479 730.232,407.779 731.899,406.379C733.566,404.979 734.666,403.346 735.199,401.479L744.199,368.279C744.732,366.413 744.499,364.779 743.499,363.379C742.499,361.979 740.999,361.279 738.999,361.279L722.599,361.279C720.732,361.279 718.932,361.979 717.199,363.379C715.466,364.779 714.332,366.413 713.799,368.279L704.799,401.479C704.266,403.346 704.532,404.979 705.599,406.379C706.666,407.779 708.132,408.479 709.999,408.479Z" style="fill-rule:nonzero;"/>
        <path d="M829.999,421.679L859.999,310.079C860.532,308.079 861.399,306.246 862.599,304.579C863.799,302.913 865.199,301.413 866.799,300.079C868.399,298.746 870.166,297.713 872.099,296.979C874.032,296.246 875.999,295.879 877.999,295.879L943.399,295.879C947.266,295.879 950.199,297.279 952.199,300.079C954.199,302.879 954.666,306.213 953.599,310.079L923.599,421.679C923.066,423.679 922.199,425.513 920.999,427.179C919.799,428.846 918.399,430.346 916.799,431.679C915.199,433.013 913.466,434.046 911.599,434.779C909.732,435.513 907.799,435.879 905.799,435.879L840.399,435.879C836.532,435.879 833.566,434.479 831.499,431.679C829.432,428.879 828.932,425.546 829.999,421.679Z" style="fill-rule:nonzero;"/>
        <path d="M929.999,421.679L952.399,337.879C952.932,336.013 954.099,334.379 955.899,332.979C957.699,331.579 959.532,330.879 961.399,330.879L1041,330.879C1042.87,330.879 1044.3,331.579 1045.3,332.979C1046.3,334.379 1046.53,336.013 1046,337.879L1023.6,421.679C1023.07,423.679 1022.2,425.513 1021,427.179C1019.8,428.846 1018.4,430.346 1016.8,431.679C1015.2,433.013 1013.47,434.046 1011.6,434.779C1009.73,435.513 1007.8,435.879 1005.8,435.879L940.399,435.879C936.532,435.879 933.566,434.479 931.499,431.679C929.432,428.879 928.932,425.546 929.999,421.679ZM959.399,311.679L959.999,310.079C960.532,308.079 961.399,306.246 962.599,304.579C963.799,302.913 965.199,301.413 966.799,300.079C968.399,298.746 970.166,297.713 972.099,296.979C974.032,296.246 975.999,295.879 977.999,295.879L1043.4,295.879C1047.27,295.879 1050.2,297.279 1052.2,300.079C1054.2,302.879 1054.67,306.213 1053.6,310.079L1053,311.679C1052.33,313.546 1051.17,315.179 1049.5,316.579C1047.83,317.979 1046.07,318.679 1044.2,318.679L964.599,318.679C962.732,318.679 961.232,317.979 960.099,316.579C958.966,315.179 958.732,313.546 959.399,311.679Z" style="fill-rule:nonzero;"/>
        <path d="M1044,365.279L1058.8,310.079C1059.33,308.079 1060.2,306.246 1061.4,304.579C1062.6,302.913 1064,301.413 1065.6,300.079C1067.2,298.746 1068.97,297.713 1070.9,296.979C1072.83,296.246 1074.8,295.879 1076.8,295.879L1142.2,295.879C1146.07,295.879 1149,297.279 1151,300.079C1153,302.879 1153.47,306.213 1152.4,310.079L1148.6,323.879C1148.07,325.746 1148.33,327.379 1149.4,328.779C1150.47,330.179 1151.93,330.879 1153.8,330.879L1210,330.879C1213.87,330.879 1216.8,332.279 1218.8,335.079C1220.8,337.879 1221.27,341.213 1220.2,345.079L1217.6,354.279C1217.07,356.146 1215.97,357.779 1214.3,359.179C1212.63,360.579 1210.8,361.279 1208.8,361.279L1145.6,361.279C1143.73,361.279 1141.93,361.979 1140.2,363.379C1138.47,364.779 1137.33,366.413 1136.8,368.279L1128.6,398.279C1128.07,400.279 1128.33,401.979 1129.4,403.379C1130.47,404.779 1131.93,405.479 1133.8,405.479L1150.2,405.479C1152.2,405.479 1154,404.779 1155.6,403.379C1157.2,401.979 1158.33,400.279 1159,398.279L1159.6,396.479C1160.27,394.613 1161.43,392.979 1163.1,391.579C1164.77,390.179 1166.6,389.479 1168.6,389.479L1248,389.479C1250,389.479 1251.53,390.179 1252.6,391.579C1253.67,392.979 1253.93,394.613 1253.4,396.479L1246.6,421.679C1246.07,423.679 1245.2,425.513 1244,427.179C1242.8,428.846 1241.4,430.346 1239.8,431.679C1238.2,433.013 1236.43,434.046 1234.5,434.779C1232.57,435.513 1230.6,435.879 1228.6,435.879L1095.6,435.879C1085.87,435.879 1077.2,434.046 1069.6,430.379C1062,426.713 1055.87,421.679 1051.2,415.279C1046.53,408.879 1043.53,401.379 1042.2,392.779C1040.87,384.179 1041.47,375.013 1044,365.279Z" style="fill-rule:nonzero;"/>
        <path d="M1222.4,365.279L1237.2,310.079C1237.73,308.079 1238.6,306.246 1239.8,304.579C1241,302.913 1242.4,301.413 1244,300.079C1245.6,298.746 1247.37,297.713 1249.3,296.979C1251.23,296.246 1253.2,295.879 1255.2,295.879L1320.6,295.879C1324.47,295.879 1327.4,297.279 1329.4,300.079C1331.4,302.879 1331.87,306.213 1330.8,310.079L1327,323.879C1326.47,325.746 1326.73,327.379 1327.8,328.779C1328.87,330.179 1330.33,330.879 1332.2,330.879L1388.4,330.879C1392.27,330.879 1395.2,332.279 1397.2,335.079C1399.2,337.879 1399.67,341.213 1398.6,345.079L1396,354.279C1395.47,356.146 1394.37,357.779 1392.7,359.179C1391.03,360.579 1389.2,361.279 1387.2,361.279L1324,361.279C1322.13,361.279 1320.33,361.979 1318.6,363.379C1316.87,364.779 1315.73,366.413 1315.2,368.279L1307,398.279C1306.47,400.279 1306.73,401.979 1307.8,403.379C1308.87,404.779 1310.33,405.479 1312.2,405.479L1328.6,405.479C1330.6,405.479 1332.4,404.779 1334,403.379C1335.6,401.979 1336.73,400.279 1337.4,398.279L1338,396.479C1338.67,394.613 1339.83,392.979 1341.5,391.579C1343.17,390.179 1345,389.479 1347,389.479L1426.4,389.479C1428.4,389.479 1429.93,390.179 1431,391.579C1432.07,392.979 1432.33,394.613 1431.8,396.479L1425,421.679C1424.47,423.679 1423.6,425.513 1422.4,427.179C1421.2,428.846 1419.8,430.346 1418.2,431.679C1416.6,433.013 1414.83,434.046 1412.9,434.779C1410.97,435.513 1409,435.879 1407,435.879L1274,435.879C1264.27,435.879 1255.6,434.046 1248,430.379C1240.4,426.713 1234.27,421.679 1229.6,415.279C1224.93,408.879 1221.93,401.379 1220.6,392.779C1219.27,384.179 1219.87,375.013 1222.4,365.279Z" style="fill-rule:nonzero;"/>
        <path d="M1389.4,421.679L1394.8,401.479C1397.47,391.746 1401.8,382.579 1407.8,373.979C1413.8,365.379 1420.83,357.879 1428.9,351.479C1436.97,345.079 1445.8,340.046 1455.4,336.379C1465,332.713 1474.67,330.879 1484.4,330.879L1617.4,330.879C1621.27,330.879 1624.23,332.279 1626.3,335.079C1628.37,337.879 1628.87,341.213 1627.8,345.079L1616.6,386.279C1616.07,388.146 1614.93,389.779 1613.2,391.179C1611.47,392.579 1609.6,393.279 1607.6,393.279L1496.8,393.279C1495.07,393.279 1493.47,393.879 1492,395.079C1490.53,396.279 1489.53,397.679 1489,399.279C1488.47,401.013 1488.67,402.479 1489.6,403.679C1490.53,404.879 1491.87,405.479 1493.6,405.479L1604.4,405.479C1606.4,405.479 1607.9,406.179 1608.9,407.579C1609.9,408.979 1610.13,410.613 1609.6,412.479L1607.2,421.679C1606.67,423.679 1605.8,425.513 1604.6,427.179C1603.4,428.846 1602,430.346 1600.4,431.679C1598.8,433.013 1597.03,434.046 1595.1,434.779C1593.17,435.513 1591.2,435.879 1589.2,435.879L1399.8,435.879C1395.93,435.879 1392.97,434.479 1390.9,431.679C1388.83,428.879 1388.33,425.546 1389.4,421.679ZM1502.2,373.479L1520.4,373.479C1522.13,373.479 1523.73,372.879 1525.2,371.679C1526.67,370.479 1527.6,369.079 1528,367.479C1528.4,365.746 1528.2,364.279 1527.4,363.079C1526.6,361.879 1525.33,361.279 1523.6,361.279L1505.4,361.279C1503.67,361.279 1502.07,361.879 1500.6,363.079C1499.13,364.279 1498.13,365.746 1497.6,367.479C1497.07,369.079 1497.27,370.479 1498.2,371.679C1499.13,372.879 1500.47,373.479 1502.2,373.479Z" style="fill-rule:nonzero;"/>
        <path d="M1579.4,421.679L1584.8,401.479C1587.47,391.746 1591.8,382.579 1597.8,373.979C1603.8,365.379 1610.83,357.879 1618.9,351.479C1626.97,345.079 1635.8,340.046 1645.4,336.379C1655,332.713 1664.67,330.879 1674.4,330.879L1807.4,330.879C1811.27,330.879 1814.23,332.279 1816.3,335.079C1818.37,337.879 1818.87,341.213 1817.8,345.079L1811,370.279C1810.47,372.146 1809.33,373.779 1807.6,375.179C1805.87,376.579 1804,377.279 1802,377.279L1722.6,377.279C1720.6,377.279 1719.03,376.579 1717.9,375.179C1716.77,373.779 1716.53,372.146 1717.2,370.279L1717.8,368.279C1718.47,366.413 1718.27,364.779 1717.2,363.379C1716.13,361.979 1714.6,361.279 1712.6,361.279L1696.2,361.279C1694.33,361.279 1692.53,361.979 1690.8,363.379C1689.07,364.779 1687.93,366.413 1687.4,368.279L1673,421.679C1672.47,423.679 1671.6,425.513 1670.4,427.179C1669.2,428.846 1667.8,430.346 1666.2,431.679C1664.6,433.013 1662.87,434.046 1661,434.779C1659.13,435.513 1657.2,435.879 1655.2,435.879L1589.8,435.879C1585.93,435.879 1582.97,434.479 1580.9,431.679C1578.83,428.879 1578.33,425.546 1579.4,421.679Z" style="fill-rule:nonzero;"/>
    </g>
</svg>
